<mxfile host="app.diagrams.net" modified="2020-09-02T11:12:39.982Z" agent="5.0 (Windows NT 10.0; Win64; x64) AppleWebKit/537.36 (KHTML, like Gecko) Chrome/85.0.4183.83 Safari/537.36" etag="Kv_Qzj7qCfRkkNc0fROL" version="13.6.6" type="github">
  <diagram name="Page-1" id="c7558073-3199-34d8-9f00-42111426c3f3">
    <mxGraphModel dx="1182" dy="1911" grid="1" gridSize="10" guides="1" tooltips="1" connect="1" arrows="1" fold="1" page="1" pageScale="1" pageWidth="826" pageHeight="1169" background="#ffffff" math="0" shadow="0">
      <root>
        <mxCell id="0" />
        <mxCell id="1" parent="0" />
        <mxCell id="4" value="FPS" style="whiteSpace=wrap;align=center;verticalAlign=middle;fontStyle=1;strokeWidth=3;fillColor=#FFFFCC" parent="1" vertex="1">
          <mxGeometry x="60" y="140" width="90" height="60" as="geometry" />
        </mxCell>
        <mxCell id="9l9WeW9xyDhof0BqgNnj-104" style="edgeStyle=orthogonalEdgeStyle;rounded=0;orthogonalLoop=1;jettySize=auto;html=1;exitX=0.5;exitY=1;exitDx=0;exitDy=0;entryX=0.5;entryY=0;entryDx=0;entryDy=0;" edge="1" parent="1" source="5" target="9l9WeW9xyDhof0BqgNnj-98">
          <mxGeometry relative="1" as="geometry" />
        </mxCell>
        <mxCell id="5" value="ON-DEMAND SYSTEM DEVELOPMENT" style="shape=process;whiteSpace=wrap;align=center;verticalAlign=middle;size=0.0475;fontStyle=1;strokeWidth=3;fillColor=#FFCCCC" parent="1" vertex="1">
          <mxGeometry x="239.99999999999991" width="400" height="50" as="geometry" />
        </mxCell>
        <mxCell id="9l9WeW9xyDhof0BqgNnj-96" value="RTS" style="whiteSpace=wrap;align=center;verticalAlign=middle;fontStyle=1;strokeWidth=3;fillColor=#FFFFCC" vertex="1" parent="1">
          <mxGeometry x="170" y="140" width="90" height="60" as="geometry" />
        </mxCell>
        <mxCell id="9l9WeW9xyDhof0BqgNnj-97" value="RPG" style="whiteSpace=wrap;align=center;verticalAlign=middle;fontStyle=1;strokeWidth=3;fillColor=#FFFFCC" vertex="1" parent="1">
          <mxGeometry x="280" y="140" width="90" height="60" as="geometry" />
        </mxCell>
        <mxCell id="9l9WeW9xyDhof0BqgNnj-98" value="SIM" style="whiteSpace=wrap;align=center;verticalAlign=middle;fontStyle=1;strokeWidth=3;fillColor=#FFFFCC" vertex="1" parent="1">
          <mxGeometry x="390" y="140" width="90" height="60" as="geometry" />
        </mxCell>
        <mxCell id="9l9WeW9xyDhof0BqgNnj-99" value="Fighting" style="whiteSpace=wrap;align=center;verticalAlign=middle;fontStyle=1;strokeWidth=3;fillColor=#FFFFCC" vertex="1" parent="1">
          <mxGeometry x="500" y="140" width="90" height="60" as="geometry" />
        </mxCell>
        <mxCell id="9l9WeW9xyDhof0BqgNnj-100" value="Craftin/Open world" style="whiteSpace=wrap;align=center;verticalAlign=middle;fontStyle=1;strokeWidth=3;fillColor=#FFFFCC" vertex="1" parent="1">
          <mxGeometry x="610" y="140" width="90" height="60" as="geometry" />
        </mxCell>
        <mxCell id="9l9WeW9xyDhof0BqgNnj-106" value="FPS&lt;br&gt;Airsoft&lt;br&gt;Music&lt;br&gt;Hiking&lt;br&gt;Cosplay Building&lt;br&gt;Archery/Shooting&lt;br&gt;Hunting&lt;br&gt;Darts&lt;br&gt;" style="rounded=1;whiteSpace=wrap;html=1;" vertex="1" parent="1">
          <mxGeometry x="50" y="230" width="100" height="210" as="geometry" />
        </mxCell>
        <mxCell id="9l9WeW9xyDhof0BqgNnj-107" value="RTS&lt;br&gt;Warhammer&lt;br&gt;Board Games&lt;br&gt;Football&lt;br&gt;" style="rounded=1;whiteSpace=wrap;html=1;" vertex="1" parent="1">
          <mxGeometry x="180" y="240" width="80" height="250" as="geometry" />
        </mxCell>
        <mxCell id="9l9WeW9xyDhof0BqgNnj-108" value="Martial Art&lt;br&gt;UFC/Sport&lt;br&gt;Music&lt;br&gt;" style="rounded=1;whiteSpace=wrap;html=1;" vertex="1" parent="1">
          <mxGeometry x="510" y="220" width="80" height="250" as="geometry" />
        </mxCell>
        <mxCell id="9l9WeW9xyDhof0BqgNnj-109" value="language&lt;br&gt;martial art&lt;br&gt;travelling&lt;br&gt;hiking&lt;br&gt;weight lifting&lt;br&gt;camping" style="rounded=1;whiteSpace=wrap;html=1;" vertex="1" parent="1">
          <mxGeometry x="290" y="230" width="80" height="250" as="geometry" />
        </mxCell>
        <mxCell id="9l9WeW9xyDhof0BqgNnj-110" value="hiking&lt;br&gt;weight lifting&lt;br&gt;camping&lt;br&gt;survivalism&lt;br&gt;go karting&lt;br&gt;car building&lt;br&gt;model building&lt;br&gt;warhammer&lt;br&gt;cooking&lt;br&gt;" style="rounded=1;whiteSpace=wrap;html=1;" vertex="1" parent="1">
          <mxGeometry x="395" y="230" width="80" height="250" as="geometry" />
        </mxCell>
        <mxCell id="9l9WeW9xyDhof0BqgNnj-111" value="cooking&lt;br&gt;survivalism&lt;br&gt;hiking&lt;br&gt;camping&lt;br&gt;travel&lt;br&gt;carpentry&lt;br&gt;jewl making&lt;br&gt;cosplay&lt;br&gt;" style="rounded=1;whiteSpace=wrap;html=1;" vertex="1" parent="1">
          <mxGeometry x="615" y="220" width="80" height="250" as="geometry" />
        </mxCell>
      </root>
    </mxGraphModel>
  </diagram>
</mxfile>
